<svg width="10" height="6" viewBox="0 0 10 6" fill="none" xmlns="http://www.w3.org/2000/svg">
<path fill-rule="evenodd" clip-rule="evenodd" d="M0.183925 1.10861C0.126384 1.04913 0.0804868 0.97798 0.0489123 0.899311C0.0173377 0.820642 0.000717943 0.73603 2.28109e-05 0.650413C-0.000672321 0.564795 0.0145711 0.479887 0.0448635 0.400642C0.075156 0.321397 0.119891 0.249403 0.176458 0.18886C0.233025 0.128317 0.300291 0.0804386 0.374332 0.048017C0.448372 0.0155954 0.527705 -0.000719564 0.607699 2.42994e-05C0.687694 0.00076864 0.76675 0.0185561 0.840253 0.0523495C0.913756 0.0861435 0.980235 0.135267 1.03581 0.196853L4.5777 3.98769C4.69068 4.10857 4.84389 4.17648 5.00364 4.17648C5.16339 4.17648 5.3166 4.10857 5.42958 3.98769L8.97147 0.196207C9.08452 0.0752995 9.23781 0.00740928 9.39763 0.00746983C9.55744 0.00753039 9.71069 0.0755378 9.82366 0.19653C9.93662 0.317523 10.0001 0.48159 10 0.652639C9.99994 0.823687 9.9364 0.987706 9.82336 1.10861L5.42958 5.81121C5.3166 5.93209 5.16339 6 5.00364 6C4.84389 6 4.69068 5.93209 4.5777 5.81121L0.183925 1.10861Z" fill="#E75C17"/>
</svg>
