<svg width="14" height="17" viewBox="0 0 14 17" fill="none" xmlns="http://www.w3.org/2000/svg">
<path d="M1.22289 5.87974C1.22183 5.10492 1.37187 4.33755 1.66439 3.62186C1.9569 2.90617 2.38609 2.25631 2.92722 1.70976C3.46836 1.1632 4.11073 0.73074 4.81731 0.437315C5.52389 0.143891 6.2807 -0.00469765 7.04413 0.000113189C10.2297 0.0241485 12.7778 2.71146 12.7778 5.95355V6.53305C12.7778 9.45788 13.3807 11.1551 13.9117 12.0828C13.9689 12.1819 13.9994 12.2946 14 12.4094C14.0006 12.5243 13.9713 12.6373 13.9152 12.737C13.859 12.8368 13.7779 12.9197 13.6801 12.9775C13.5823 13.0353 13.4712 13.0659 13.358 13.0661H0.641986C0.528789 13.0658 0.417671 13.0353 0.319841 12.9775C0.222011 12.9197 0.140929 12.8367 0.0847763 12.737C0.0286232 12.6372 -0.000615482 12.5242 9.82308e-06 12.4093C0.000635128 12.2944 0.0311022 12.1817 0.0883378 12.0826C0.619668 11.155 1.22289 9.45774 1.22289 6.53305L1.22289 5.87974Z" fill="#E8601B"/>
<path d="M4.42773 13.0664V13.7197C4.42773 14.4128 4.69901 15.0775 5.1819 15.5676C5.66478 16.0576 6.3197 16.333 7.0026 16.333C7.6855 16.333 8.34042 16.0576 8.82331 15.5676C9.30619 15.0775 9.57747 14.4128 9.57747 13.7197V13.0664" fill="#E8601B"/>
</svg>
